<svg xmlns="http://www.w3.org/2000/svg"  viewBox="0 0 48 48" width="48px" height="48px"><path d="M16.594,42c-1.089,0-2.009-0.206-2.732-0.611c-1.094-0.643-1.985-1.877-2.668-3.678c-1.139-2.966-1.846-6.393-2.097-10.18 C9.04,26.673,9.008,25.771,9,24.774c0.008-1.096,0.047-2.111,0.118-3.048c0.123-1.681,0.316-3.191,0.592-4.617 c0.009-0.054,0.021-0.115,0.037-0.176c0.337-1.764,0.823-3.49,1.446-5.133c0.698-1.84,1.599-3.078,2.678-3.679 c0.968-0.595,2.506-0.782,4.505-0.46c3.949,0.64,8.1,2.18,12.339,4.576c4.246,2.49,7.659,5.303,10.173,8.375 c1.232,1.506,1.857,2.899,1.857,4.14c0,1.24-0.625,2.633-1.857,4.14c-2.524,3.085-5.938,5.898-10.146,8.361l-0.115,0.061 c-4.207,2.378-8.328,3.902-12.251,4.529c-0.042,0.011-0.139,0.024-0.233,0.036l-0.192,0.025C17.462,41.968,17.018,42,16.594,42z M16.587,9.505c-0.997,0-1.498,0.215-1.707,0.343c-0.404,0.226-1.126,0.843-1.816,2.662c-0.586,1.547-1.044,3.175-1.359,4.839 l-0.036,0.136c-0.251,1.333-0.44,2.808-0.555,4.389c-0.067,0.895-0.105,1.864-0.113,2.886c0.008,0.957,0.038,1.821,0.092,2.639 c0.238,3.586,0.901,6.816,1.97,9.599c0.512,1.349,1.132,2.267,1.795,2.657c0.59,0.33,1.558,0.438,2.872,0.261l0.276-0.037 c3.767-0.604,7.69-2.064,11.717-4.351l0.097-0.052c3.962-2.329,7.165-4.97,9.521-7.85c0.906-1.107,1.405-2.128,1.405-2.873 c0-0.756-0.486-1.75-1.405-2.873c-2.363-2.889-5.596-5.547-9.609-7.902c-4.032-2.278-7.959-3.739-11.673-4.341 C17.518,9.549,17.022,9.505,16.587,9.505z"/></svg>